<mxfile host="app.diagrams.net" modified="2022-11-07T03:17:00.279Z" agent="5.0 (Windows NT 10.0; Win64; x64) AppleWebKit/537.36 (KHTML, like Gecko) Chrome/107.0.0.0 Safari/537.36 Edg/107.0.1418.35" etag="2oEl9tBxflaxKoFM1zb7" version="20.5.3" type="github">
  <diagram name="Page-1" id="13e1069c-82ec-6db2-03f1-153e76fe0fe0">
    <mxGraphModel dx="1634" dy="896" grid="1" gridSize="10" guides="1" tooltips="1" connect="0" arrows="0" fold="1" page="1" pageScale="1" pageWidth="1100" pageHeight="850" background="none" math="0" shadow="0">
      <root>
        <mxCell id="0" />
        <mxCell id="1" parent="0" />
        <mxCell id="dvEGDVRnjvyxtzbOz74k-50" value="Alt" style="shape=umlFrame;whiteSpace=wrap;html=1;fontSize=14;" vertex="1" parent="1">
          <mxGeometry x="430" y="390" width="740" height="230" as="geometry" />
        </mxCell>
        <mxCell id="dvEGDVRnjvyxtzbOz74k-13" value=":Patient" style="shape=umlLifeline;perimeter=lifelinePerimeter;whiteSpace=wrap;html=1;container=1;collapsible=0;recursiveResize=0;outlineConnect=0;fontSize=14;" vertex="1" parent="1">
          <mxGeometry x="110" y="80" width="100" height="720" as="geometry" />
        </mxCell>
        <mxCell id="dvEGDVRnjvyxtzbOz74k-15" value="" style="html=1;points=[];perimeter=orthogonalPerimeter;fontSize=14;" vertex="1" parent="dvEGDVRnjvyxtzbOz74k-13">
          <mxGeometry x="45" y="60" width="10" height="60" as="geometry" />
        </mxCell>
        <mxCell id="dvEGDVRnjvyxtzbOz74k-14" value=":Disease Monitor" style="shape=umlLifeline;perimeter=lifelinePerimeter;whiteSpace=wrap;html=1;container=1;collapsible=0;recursiveResize=0;outlineConnect=0;fontSize=14;" vertex="1" parent="1">
          <mxGeometry x="290" y="80" width="100" height="720" as="geometry" />
        </mxCell>
        <mxCell id="dvEGDVRnjvyxtzbOz74k-18" value="" style="html=1;points=[];perimeter=orthogonalPerimeter;fontSize=14;" vertex="1" parent="dvEGDVRnjvyxtzbOz74k-14">
          <mxGeometry x="45" y="90" width="10" height="100" as="geometry" />
        </mxCell>
        <mxCell id="dvEGDVRnjvyxtzbOz74k-23" value="" style="html=1;points=[];perimeter=orthogonalPerimeter;fontSize=14;" vertex="1" parent="dvEGDVRnjvyxtzbOz74k-14">
          <mxGeometry x="45" y="130" width="10" height="40" as="geometry" />
        </mxCell>
        <mxCell id="dvEGDVRnjvyxtzbOz74k-24" value="formatting" style="edgeStyle=orthogonalEdgeStyle;html=1;align=left;spacingLeft=2;endArrow=block;rounded=0;entryX=1;entryY=0;fontSize=14;" edge="1" target="dvEGDVRnjvyxtzbOz74k-23" parent="dvEGDVRnjvyxtzbOz74k-14">
          <mxGeometry relative="1" as="geometry">
            <mxPoint x="55" y="110" as="sourcePoint" />
            <Array as="points">
              <mxPoint x="80" y="110" />
            </Array>
          </mxGeometry>
        </mxCell>
        <mxCell id="dvEGDVRnjvyxtzbOz74k-21" value=":Central Monitor" style="shape=umlLifeline;perimeter=lifelinePerimeter;whiteSpace=wrap;html=1;container=1;collapsible=0;recursiveResize=0;outlineConnect=0;fontSize=14;" vertex="1" parent="1">
          <mxGeometry x="470" y="80" width="100" height="720" as="geometry" />
        </mxCell>
        <mxCell id="dvEGDVRnjvyxtzbOz74k-22" value="" style="html=1;points=[];perimeter=orthogonalPerimeter;fontSize=14;" vertex="1" parent="dvEGDVRnjvyxtzbOz74k-21">
          <mxGeometry x="45" y="140" width="10" height="440" as="geometry" />
        </mxCell>
        <mxCell id="dvEGDVRnjvyxtzbOz74k-53" value="[else]" style="text;html=1;strokeColor=none;fillColor=none;align=center;verticalAlign=middle;whiteSpace=wrap;rounded=0;fontSize=14;" vertex="1" parent="dvEGDVRnjvyxtzbOz74k-21">
          <mxGeometry x="60" y="470" width="40" height="30" as="geometry" />
        </mxCell>
        <mxCell id="dvEGDVRnjvyxtzbOz74k-26" value="send signals" style="html=1;verticalAlign=bottom;endArrow=block;rounded=0;fontSize=14;exitX=0.813;exitY=0.975;exitDx=0;exitDy=0;exitPerimeter=0;" edge="1" parent="1" source="dvEGDVRnjvyxtzbOz74k-23">
          <mxGeometry width="80" relative="1" as="geometry">
            <mxPoint x="380" y="229" as="sourcePoint" />
            <mxPoint x="521" y="249" as="targetPoint" />
          </mxGeometry>
        </mxCell>
        <mxCell id="dvEGDVRnjvyxtzbOz74k-27" value=":Normal Signal Database" style="shape=umlLifeline;perimeter=lifelinePerimeter;whiteSpace=wrap;html=1;container=1;collapsible=0;recursiveResize=0;outlineConnect=0;fontSize=14;" vertex="1" parent="1">
          <mxGeometry x="650" y="80" width="100" height="720" as="geometry" />
        </mxCell>
        <mxCell id="dvEGDVRnjvyxtzbOz74k-28" value="" style="html=1;points=[];perimeter=orthogonalPerimeter;fontSize=14;" vertex="1" parent="dvEGDVRnjvyxtzbOz74k-27">
          <mxGeometry x="45" y="210" width="10" height="90" as="geometry" />
        </mxCell>
        <mxCell id="dvEGDVRnjvyxtzbOz74k-51" value="[if detect abnormal]" style="text;html=1;strokeColor=none;fillColor=none;align=center;verticalAlign=middle;whiteSpace=wrap;rounded=0;fontSize=14;" vertex="1" parent="dvEGDVRnjvyxtzbOz74k-27">
          <mxGeometry x="-120" y="330" width="130" height="30" as="geometry" />
        </mxCell>
        <mxCell id="dvEGDVRnjvyxtzbOz74k-29" value="collect disease signals" style="html=1;verticalAlign=bottom;endArrow=block;rounded=0;fontSize=14;entryX=0.033;entryY=0.12;entryDx=0;entryDy=0;entryPerimeter=0;" edge="1" parent="1" target="dvEGDVRnjvyxtzbOz74k-18">
          <mxGeometry width="80" relative="1" as="geometry">
            <mxPoint x="160" y="182" as="sourcePoint" />
            <mxPoint x="340" y="210" as="targetPoint" />
          </mxGeometry>
        </mxCell>
        <mxCell id="dvEGDVRnjvyxtzbOz74k-30" value="compare signals" style="html=1;verticalAlign=bottom;endArrow=block;rounded=0;fontSize=14;" edge="1" parent="1">
          <mxGeometry width="80" relative="1" as="geometry">
            <mxPoint x="519.3235294117646" y="314.9999999999999" as="sourcePoint" />
            <mxPoint x="699.5" y="314.9999999999999" as="targetPoint" />
            <Array as="points">
              <mxPoint x="680" y="315" />
            </Array>
          </mxGeometry>
        </mxCell>
        <mxCell id="dvEGDVRnjvyxtzbOz74k-33" value=":Disease Report" style="shape=umlLifeline;perimeter=lifelinePerimeter;whiteSpace=wrap;html=1;container=1;collapsible=0;recursiveResize=0;outlineConnect=0;fontSize=14;" vertex="1" parent="1">
          <mxGeometry x="840" y="80" width="110" height="720" as="geometry" />
        </mxCell>
        <mxCell id="dvEGDVRnjvyxtzbOz74k-34" value="" style="html=1;points=[];perimeter=orthogonalPerimeter;fontSize=14;" vertex="1" parent="dvEGDVRnjvyxtzbOz74k-33">
          <mxGeometry x="45" y="330" width="10" height="60" as="geometry" />
        </mxCell>
        <mxCell id="dvEGDVRnjvyxtzbOz74k-65" value="" style="html=1;points=[];perimeter=orthogonalPerimeter;fontSize=14;" vertex="1" parent="dvEGDVRnjvyxtzbOz74k-33">
          <mxGeometry x="50" y="570" width="10" height="80" as="geometry" />
        </mxCell>
        <mxCell id="dvEGDVRnjvyxtzbOz74k-67" value="print" style="html=1;verticalAlign=bottom;endArrow=block;rounded=0;fontSize=14;" edge="1" parent="dvEGDVRnjvyxtzbOz74k-33" source="dvEGDVRnjvyxtzbOz74k-61">
          <mxGeometry width="80" relative="1" as="geometry">
            <mxPoint x="135" y="609.41" as="sourcePoint" />
            <mxPoint x="55" y="609.41" as="targetPoint" />
          </mxGeometry>
        </mxCell>
        <mxCell id="dvEGDVRnjvyxtzbOz74k-35" value=":Medical Record" style="shape=umlLifeline;perimeter=lifelinePerimeter;whiteSpace=wrap;html=1;container=1;collapsible=0;recursiveResize=0;outlineConnect=0;fontSize=14;" vertex="1" parent="1">
          <mxGeometry x="1060" y="80" width="100" height="720" as="geometry" />
        </mxCell>
        <mxCell id="dvEGDVRnjvyxtzbOz74k-36" value="" style="html=1;points=[];perimeter=orthogonalPerimeter;fontSize=14;" vertex="1" parent="dvEGDVRnjvyxtzbOz74k-35">
          <mxGeometry x="45" y="380" width="10" height="40" as="geometry" />
        </mxCell>
        <mxCell id="dvEGDVRnjvyxtzbOz74k-55" value="" style="html=1;points=[];perimeter=orthogonalPerimeter;fontSize=14;" vertex="1" parent="dvEGDVRnjvyxtzbOz74k-35">
          <mxGeometry x="45" y="490" width="10" height="40" as="geometry" />
        </mxCell>
        <mxCell id="dvEGDVRnjvyxtzbOz74k-41" value="print" style="html=1;verticalAlign=bottom;endArrow=block;rounded=0;fontSize=14;" edge="1" parent="1">
          <mxGeometry width="80" relative="1" as="geometry">
            <mxPoint x="519.3235294117646" y="440.9999999999999" as="sourcePoint" />
            <mxPoint x="890" y="441" as="targetPoint" />
          </mxGeometry>
        </mxCell>
        <mxCell id="dvEGDVRnjvyxtzbOz74k-49" value="update" style="html=1;verticalAlign=bottom;endArrow=block;rounded=0;fontSize=14;exitX=0.51;exitY=0.725;exitDx=0;exitDy=0;exitPerimeter=0;" edge="1" parent="1">
          <mxGeometry x="-0.0009" y="3" width="80" relative="1" as="geometry">
            <mxPoint x="520.9999999999998" y="487.4999999999998" as="sourcePoint" />
            <mxPoint x="1109.5" y="487.4999999999998" as="targetPoint" />
            <mxPoint as="offset" />
          </mxGeometry>
        </mxCell>
        <mxCell id="dvEGDVRnjvyxtzbOz74k-54" value="update" style="html=1;verticalAlign=bottom;endArrow=block;rounded=0;fontSize=14;exitX=0.51;exitY=0.725;exitDx=0;exitDy=0;exitPerimeter=0;" edge="1" parent="1" target="dvEGDVRnjvyxtzbOz74k-35">
          <mxGeometry x="-0.0009" y="3" width="80" relative="1" as="geometry">
            <mxPoint x="525.7499999999998" y="589.9999999999999" as="sourcePoint" />
            <mxPoint x="1050" y="590" as="targetPoint" />
            <mxPoint as="offset" />
          </mxGeometry>
        </mxCell>
        <mxCell id="dvEGDVRnjvyxtzbOz74k-52" value="" style="endArrow=none;dashed=1;html=1;dashPattern=1 3;strokeWidth=2;rounded=0;fontSize=14;exitX=-0.005;exitY=0.665;exitDx=0;exitDy=0;exitPerimeter=0;entryX=1.003;entryY=0.662;entryDx=0;entryDy=0;entryPerimeter=0;" edge="1" parent="1" source="dvEGDVRnjvyxtzbOz74k-50" target="dvEGDVRnjvyxtzbOz74k-50">
          <mxGeometry width="50" height="50" relative="1" as="geometry">
            <mxPoint x="730" y="530" as="sourcePoint" />
            <mxPoint x="780" y="480" as="targetPoint" />
          </mxGeometry>
        </mxCell>
        <mxCell id="dvEGDVRnjvyxtzbOz74k-59" value="return compared result" style="html=1;verticalAlign=bottom;endArrow=open;dashed=1;endSize=8;rounded=0;fontSize=14;" edge="1" parent="1" source="dvEGDVRnjvyxtzbOz74k-27">
          <mxGeometry relative="1" as="geometry">
            <mxPoint x="604" y="353" as="sourcePoint" />
            <mxPoint x="524" y="353" as="targetPoint" />
          </mxGeometry>
        </mxCell>
        <mxCell id="dvEGDVRnjvyxtzbOz74k-61" value=":Doctor" style="shape=umlLifeline;perimeter=lifelinePerimeter;whiteSpace=wrap;html=1;container=1;collapsible=0;recursiveResize=0;outlineConnect=0;fontSize=14;" vertex="1" parent="1">
          <mxGeometry x="1250" y="80" width="100" height="720" as="geometry" />
        </mxCell>
        <mxCell id="dvEGDVRnjvyxtzbOz74k-63" value="" style="html=1;points=[];perimeter=orthogonalPerimeter;fontSize=14;" vertex="1" parent="dvEGDVRnjvyxtzbOz74k-61">
          <mxGeometry x="45" y="550" width="10" height="70" as="geometry" />
        </mxCell>
        <mxCell id="dvEGDVRnjvyxtzbOz74k-64" value="see disease report" style="html=1;verticalAlign=bottom;endArrow=block;rounded=0;fontSize=14;" edge="1" parent="dvEGDVRnjvyxtzbOz74k-61" target="dvEGDVRnjvyxtzbOz74k-33">
          <mxGeometry width="80" relative="1" as="geometry">
            <mxPoint x="50" y="580" as="sourcePoint" />
            <mxPoint x="-25" y="580" as="targetPoint" />
          </mxGeometry>
        </mxCell>
        <mxCell id="dvEGDVRnjvyxtzbOz74k-68" value=":Nurse&amp;nbsp;" style="shape=umlLifeline;perimeter=lifelinePerimeter;whiteSpace=wrap;html=1;container=1;collapsible=0;recursiveResize=0;outlineConnect=0;fontSize=14;" vertex="1" parent="1">
          <mxGeometry x="1430" y="80" width="100" height="720" as="geometry" />
        </mxCell>
        <mxCell id="dvEGDVRnjvyxtzbOz74k-62" value="" style="html=1;points=[];perimeter=orthogonalPerimeter;fontSize=14;" vertex="1" parent="dvEGDVRnjvyxtzbOz74k-68">
          <mxGeometry x="45" y="610" width="10" height="40" as="geometry" />
        </mxCell>
        <mxCell id="dvEGDVRnjvyxtzbOz74k-69" value="see disease report" style="html=1;verticalAlign=bottom;endArrow=block;rounded=0;fontSize=14;" edge="1" parent="1">
          <mxGeometry width="80" relative="1" as="geometry">
            <mxPoint x="1479.4999999999995" y="716" as="sourcePoint" />
            <mxPoint x="894.3235294117646" y="716" as="targetPoint" />
          </mxGeometry>
        </mxCell>
      </root>
    </mxGraphModel>
  </diagram>
</mxfile>
